<?xml version="1.0" encoding="utf-8"?>
<!-- Generator: Adobe Illustrator 18.0.0, SVG Export Plug-In . SVG Version: 6.00 Build 0)  -->
<!DOCTYPE svg PUBLIC "-//W3C//DTD SVG 1.1//EN" "http://www.w3.org/Graphics/SVG/1.1/DTD/svg11.dtd">
<svg version="1.1" id="TRU" xmlns="http://www.w3.org/2000/svg" xmlns:xlink="http://www.w3.org/1999/xlink" x="0px" y="0px"
	 viewBox="0 0 211.3 79.5" enable-background="new 0 0 211.3 79.5" xml:space="preserve">
<g>
	<g>
		<path fill="#383231" d="M29.4,79.6c-1.9,0-3.4-0.7-4.4-1.9s-1.5-2.9-1.5-4.6V25.3c0-1.3-0.3-2.3-0.8-2.7c-0.6-0.4-1.4-0.7-2.5-0.7
			H6.6C5,21.9,3,21.3,2,20.2c-1-1.2-2-2.9-2-5.4s1-4.2,1.9-5.4s3-1.8,4.5-1.8h22.3c1.6,0,3,0.8,4.3,2.2c1.3,1.5,1.8,3.4,1.8,5.8
			v57.3c0,1.9-0.4,3.5-1.3,4.8C32.8,79.1,31.3,79.6,29.4,79.6z"/>
		<path fill="#383231" d="M109.9,77.9c-0.9-1.2-1.4-2.8-1.4-4.8V58c0-2-0.6-3.8-1.7-5.2s-3.4-2.1-5-2.1h-12c-1.7,0-3.9-0.7-5.1-1.9
			c-1.2-1.3-1.8-2.9-1.8-5c0-2,0.6-3.7,1.8-5c1.2-1.3,3.4-1.9,5.1-1.9h11.8c1.6,0,3.8-0.7,5-2.1c1.1-1.4,1.9-3.1,1.9-5.2
			c0-2-0.8-3.8-1.9-5.3c-1.1-1.5-3.4-2.2-5-2.2H77.6c-1.1,0-1.9,0.3-2.5,0.7c-0.6,0.4-0.8,1.3-0.8,2.7v47.8c0,1.8-0.5,3.4-1.5,4.6
			s-2.5,1.9-4.4,1.9c-1.9,0-3.3-0.6-4.2-1.8c-0.9-1.2-1.3-2.8-1.3-4.8V15.8c0-2.4,0.6-4.4,1.8-5.8c1.3-1.5,2.7-2.2,4.3-2.2h32.9
			c2.5,0,4.9,0.6,7.1,1.7c2.2,1.1,4.1,2.7,5.8,4.6c1.7,1.9,2.9,4.3,3.9,6.9c0.9,2.6,1.4,5.5,1.4,8.4c0,2.9-0.4,5.5-1.2,7.9
			c-0.8,2.4-1.9,4.5-3.4,6.4c1.5,1.9,2.6,4,3.4,6.5c0.8,2.4,1.2,5,1.2,7.7V73c0,1.8-0.5,3.4-1.5,4.6s-2.4,1.9-4.4,1.9
			C112.3,79.6,110.9,79.1,109.9,77.9z"/>
		<path fill="#383231" d="M159.5,79.5c-3.9,0-7.7-0.7-11.3-2.4c-3.5-1.8-6.6-4.4-9.3-7.5c-2.7-3.2-4.8-6.9-6.4-11.1
			c-1.6-4.2-2.4-8.7-2.4-13.5V14.4c0-1.8,0.5-3.4,1.5-4.6c1-1.3,2.4-1.9,4.4-1.9s3.4,0.6,4.3,1.8c0.9,1.2,1.4,2.8,1.4,4.8v29.9
			c0,2.8,0.2,5.7,1.2,8.2c0.9,2.6,2.3,4.9,3.9,6.8c1.6,1.9,3.8,3.5,6,4.8c2.2,1.2,4.5,1.5,6.9,1.5c2.4,0,4.7-0.3,6.9-1.4
			c2.2-1.1,4.4-2.7,6-4.6c1.7-1.9,2.9-4.3,3.9-6.9c0.9-2.6,1.2-5.7,1.2-8.8V14.4c0-1.8,0.5-3.4,1.5-4.6c1-1.3,2.4-1.9,4.4-1.9
			c1.9,0,3.4,0.6,4.3,1.8c0.9,1.2,1.4,2.8,1.4,4.8v29.4c0,5.5-0.8,10.5-2.4,14.9c-1.5,4.5-3.6,8.2-6.3,11.3
			c-2.6,3.1-5.8,5.5-9.3,7.2C167.4,78.9,163.6,79.5,159.5,79.5z"/>
	</g>
	
		<radialGradient id="SVGID_1_" cx="56.95" cy="987.7886" r="8.6" gradientTransform="matrix(0.8401 0 0 -0.8401 0 844.646)" gradientUnits="userSpaceOnUse">
		<stop  offset="0" style="stop-color:#D2ECFA"/>
		<stop  offset="3.263371e-002" style="stop-color:#C8E7ED"/>
		<stop  offset="0.1073" style="stop-color:#B7DED4"/>
		<stop  offset="0.1757" style="stop-color:#ACD9C5"/>
		<stop  offset="0.2317" style="stop-color:#A8D7C0"/>
		<stop  offset="0.3233" style="stop-color:#97CEC4"/>
		<stop  offset="0.5034" style="stop-color:#6CB6CF"/>
		<stop  offset="0.559" style="stop-color:#5DAED3"/>
		<stop  offset="0.5942" style="stop-color:#55A9D0"/>
		<stop  offset="0.8691" style="stop-color:#1887B8"/>
		<stop  offset="1" style="stop-color:#007AAF"/>
	</radialGradient>
	<circle fill="url(#SVGID_1_)" cx="47.9" cy="14.8" r="7.2"/>
	
		<radialGradient id="SVGID_2_" cx="190" cy="953.2924" r="8.5954" gradientTransform="matrix(0.8401 0 0 -0.8401 0 844.646)" gradientUnits="userSpaceOnUse">
		<stop  offset="0" style="stop-color:#D2ECFA"/>
		<stop  offset="3.263371e-002" style="stop-color:#C8E7ED"/>
		<stop  offset="0.1073" style="stop-color:#B7DED4"/>
		<stop  offset="0.1757" style="stop-color:#ACD9C5"/>
		<stop  offset="0.2317" style="stop-color:#A8D7C0"/>
		<stop  offset="0.3233" style="stop-color:#97CEC4"/>
		<stop  offset="0.5034" style="stop-color:#6CB6CF"/>
		<stop  offset="0.559" style="stop-color:#5DAED3"/>
		<stop  offset="0.5942" style="stop-color:#55A9D0"/>
		<stop  offset="0.8691" style="stop-color:#1887B8"/>
		<stop  offset="1" style="stop-color:#007AAF"/>
	</radialGradient>
	<circle fill="url(#SVGID_2_)" cx="159.6" cy="43.8" r="7.2"/>
</g>
<g>
	<path fill="#383231" d="M199.4,1.3h-3.6v10.8h-2.1V1.3H190V0h9.3L199.4,1.3L199.4,1.3z"/>
	<path fill="#383231" d="M211.3,12.2h-1.8V3.5h-0.2l-2.2,8.7h-1.4l-2.2-8.7h-0.2v8.7h-1.8V0h2.8l2,8.1h0.2l2-8.1h2.8L211.3,12.2
		L211.3,12.2z"/>
</g>
</svg>
